<svg width="48" height="9" viewBox="0 0 48 9" fill="none" xmlns="http://www.w3.org/2000/svg">
<path d="M44.0558 8.91611C42.1478 8.91611 40.8398 7.50011 40.8398 5.66411C40.8398 3.82811 42.1478 2.41211 44.0558 2.41211C45.9638 2.41211 47.2718 3.82811 47.2718 5.66411C47.2718 7.50011 45.9638 8.91611 44.0558 8.91611ZM44.0558 7.66811C45.0518 7.66811 45.6158 6.86411 45.6158 5.66411C45.6158 4.46411 45.0518 3.64811 44.0558 3.64811C43.0478 3.64811 42.4958 4.46411 42.4958 5.66411C42.4958 6.86411 43.0478 7.66811 44.0558 7.66811Z" fill="white"/>
<path d="M33.5137 8.73625V0.15625H37.4497C39.1057 0.15625 40.2097 1.11625 40.2097 2.54425C40.2097 3.55225 39.7417 4.32025 38.6377 4.62025V4.65625C39.4297 4.88425 39.8377 5.34025 39.9457 6.38425C40.0657 7.59625 40.0177 8.52025 40.3177 8.65225V8.73625H38.6497C38.4337 8.64025 38.4097 7.68025 38.3377 6.75625C38.2657 5.82025 37.7377 5.29225 36.6577 5.29225H35.2537V8.73625H33.5137ZM35.2537 1.56025V3.94825H37.1017C38.0497 3.94825 38.5177 3.45625 38.5177 2.77225C38.5177 2.07625 38.0737 1.56025 37.1497 1.56025H35.2537Z" fill="white"/>
<path d="M27.7311 8.91611C25.6911 8.91611 24.5391 7.48811 24.5391 5.65211C24.5391 3.82811 25.7751 2.41211 27.5751 2.41211C29.5551 2.41211 30.6111 3.92411 30.6111 6.12011H26.1471C26.2671 7.06811 26.7951 7.65611 27.7191 7.65611C28.3551 7.65611 28.7271 7.36811 28.9071 6.90011H30.5151C30.2871 7.99211 29.3151 8.91611 27.7311 8.91611ZM27.5991 3.67211C26.7351 3.67211 26.3151 4.18811 26.1711 4.99211H28.9071C28.8591 4.21211 28.3431 3.67211 27.5991 3.67211Z" fill="white"/>
<path d="M22.3786 2.58079V3.56479H22.4146C22.7866 2.86879 23.2066 2.50879 23.9266 2.50879C24.1066 2.50879 24.2146 2.52079 24.3106 2.55679V3.98479H24.2746C23.2066 3.87679 22.4386 4.44079 22.4386 5.73679V8.73679H20.8066V2.58079H22.3786Z" fill="white"/>
<path d="M18.4143 8.7368C18.3183 8.6168 18.2583 8.3288 18.2223 8.0528H18.1983C17.8863 8.5208 17.4423 8.88081 16.3863 8.88081C15.1263 8.88081 14.2383 8.22081 14.2383 6.99681C14.2383 5.64081 15.3423 5.2088 16.7103 5.0168C17.7303 4.8728 18.1983 4.7888 18.1983 4.3208C18.1983 3.8768 17.8503 3.5888 17.1663 3.5888C16.3983 3.5888 16.0263 3.8648 15.9783 4.4528H14.5263C14.5743 3.3728 15.3783 2.4248 17.1783 2.4248C19.0263 2.4248 19.7703 3.2528 19.7703 4.6928V7.82481C19.7703 8.29281 19.8423 8.5688 19.9863 8.6768V8.7368H18.4143ZM16.7823 7.7408C17.7183 7.7408 18.2343 7.1648 18.2343 6.56481V5.6408C17.9463 5.8088 17.5023 5.9048 17.0943 6.0008C16.2423 6.1928 15.8223 6.3848 15.8223 6.9608C15.8223 7.5368 16.2063 7.7408 16.7823 7.7408Z" fill="white"/>
<path d="M9.58317 0.15625V3.38425H9.61917C10.0632 2.73625 10.5672 2.41225 11.4072 2.41225C12.6792 2.41225 13.5312 3.37225 13.5312 4.71625V8.73625H11.8992V4.95625C11.8992 4.29625 11.5152 3.82825 10.8312 3.82825C10.1112 3.82825 9.58317 4.40425 9.58317 5.24425V8.73625H7.95117V0.15625H9.58317Z" fill="white"/>
<path d="M3.708 8.928C1.38 8.928 0.06 7.896 0 6.084H1.704C1.824 7.116 2.412 7.524 3.636 7.524C4.524 7.524 5.304 7.212 5.304 6.42C5.304 5.58 4.488 5.412 3.18 5.112C1.644 4.764 0.24 4.356 0.24 2.568C0.24 0.876 1.62 0 3.528 0C5.46 0 6.708 0.948 6.84 2.676H5.172C5.076 1.812 4.404 1.38 3.516 1.38C2.58 1.38 1.968 1.776 1.968 2.388C1.968 3.084 2.568 3.288 3.84 3.564C5.604 3.948 7.044 4.368 7.044 6.216C7.044 7.956 5.64 8.928 3.708 8.928Z" fill="white"/>
</svg>
